<svg xmlns="http://www.w3.org/2000/svg" width="48" height="51.433" viewBox="0 0 48 51.433"><g id="layer1" transform="translate(-1.058 -280.595)"><path id="path13638" d="M25.026,280.6a.865.865,0,0,0-.355.1A81.153,81.153,0,0,1,1.8,287.461a.857.857,0,0,0-.74.855V306.31c0,11.023,6.035,17.561,11.985,21.2a35.331,35.331,0,0,0,11.888,4.512.837.837,0,0,0,.254,0,35.331,35.331,0,0,0,11.888-4.512c5.95-3.636,11.985-10.175,11.985-21.2V288.316a.857.857,0,0,0-.74-.855,81.157,81.157,0,0,1-22.873-6.77.858.858,0,0,0-.419-.1Zm.032,10.289A15.429,15.429,0,1,1,9.633,306.309,15.436,15.436,0,0,1,25.058,290.884Zm-3.43,7.713v4.291H17.346a.857.857,0,0,0-.86.854v5.145a.857.857,0,0,0,.86.854h4.282v4.291a.857.857,0,0,0,.862.854h5.136a.857.857,0,0,0,.86-.854V309.74h4.284a.857.857,0,0,0,.86-.854v-5.145a.857.857,0,0,0-.86-.854H28.487V298.6a.857.857,0,0,0-.86-.854H22.446a.862.862,0,0,0-.818.854Z" transform="translate(0 0)" fill="#3ab8fb"></path></g></svg>