<svg xmlns="http://www.w3.org/2000/svg" width="51.067" height="46.117" viewBox="0 0 51.067 46.117">
  <g id="smiling-baby" transform="translate(0.5 0.5)">
    <circle id="Ellipse_57" data-name="Ellipse 57" cx="1.988" cy="1.988" r="1.988" transform="translate(12.605 25.7)" fill="#3ab8fb" stroke="#3ab8fb" stroke-width="1"/>
    <circle id="Ellipse_58" data-name="Ellipse 58" cx="1.988" cy="1.988" r="1.988" transform="translate(33.486 25.7)" fill="#3ab8fb" stroke="#3ab8fb" stroke-width="1"/>
    <path id="Path_439" data-name="Path 439" d="M50.067,45.976a5.871,5.871,0,0,0-4.828-5.77v-.869a20.205,20.205,0,1,0-40.411,0v.869A5.862,5.862,0,0,0,4.9,51.758a11.714,11.714,0,0,0,6.072,9.786c3.241,1.82,7.841,2.7,14.062,2.7s10.821-.885,14.062-2.7a11.714,11.714,0,0,0,6.072-9.786A5.871,5.871,0,0,0,50.067,45.976Zm-48,0a3.8,3.8,0,0,1,2.758-3.649v7.3A3.8,3.8,0,0,1,2.07,45.976Zm41.1,4.154c0,4.545-1.664,7.689-5.087,9.61-2.924,1.642-7.192,2.439-13.049,2.439s-10.125-.8-13.049-2.439C8.562,57.818,6.9,54.675,6.9,50.13V39.337A18.168,18.168,0,0,1,19.823,21.966c5.69.072,8.72,4.179,8.72,7.153a4.136,4.136,0,0,1-4.131,4.131,3.1,3.1,0,0,1-3.1-3.1,2.274,2.274,0,0,1,2.271-2.271,1.035,1.035,0,1,0,0-2.07,4.346,4.346,0,0,0-4.341,4.341,5.173,5.173,0,0,0,5.167,5.167,6.208,6.208,0,0,0,6.2-6.2,8.864,8.864,0,0,0-2.887-6.182A10.527,10.527,0,0,0,25.282,21.2,18.156,18.156,0,0,1,43.169,39.337V50.13Zm2.07-.505v-7.3a3.792,3.792,0,0,1,0,7.3Z" transform="translate(0 -19.132)" fill="#3ab8fb" stroke="#3ab8fb" stroke-width="1"/>
    <path id="Path_440" data-name="Path 440" d="M158.694,253.163a5.666,5.666,0,0,1-8,0,1.035,1.035,0,0,0-1.464,1.464,7.739,7.739,0,0,0,10.932,0,1.035,1.035,0,0,0-1.464-1.464Z" transform="translate(-129.659 -222.625)" fill="#3ab8fb" stroke="#3ab8fb" stroke-width="1"/>
  </g>
</svg>
