<?xml version="1.0" standalone="no"?>
<!DOCTYPE svg PUBLIC "-//W3C//DTD SVG 20010904//EN"
 "http://www.w3.org/TR/2001/REC-SVG-20010904/DTD/svg10.dtd">
<svg version="1.0" xmlns="http://www.w3.org/2000/svg"
 width="640.000000pt" height="360.000000pt" viewBox="0 0 640.000000 360.000000"
 preserveAspectRatio="xMidYMid meet">
<metadata>
Created by potrace 1.16, written by Peter Selinger 2001-2019
</metadata>
<g transform="translate(0.000000,360.000000) scale(0.100000,-0.100000)"
fill="#000000" stroke="none">
<path d="M2396 2082 c-3 -5 -5 -39 -5 -76 1 -52 -3 -70 -16 -80 -12 -9 -15
-24 -12 -66 l3 -55 2 58 c1 31 6 57 11 57 7 0 16 -229 14 -385 -5 -468 -5
-476 -25 -469 -17 5 -18 -12 -18 -425 l0 -431 393 0 392 0 -3 -105 -3 -105
115 0 116 0 0 95 0 95 250 0 250 0 0 185 c0 117 -4 185 -10 185 -6 0 -9 5 -8
12 2 6 -5 14 -14 16 -13 2 -16 -1 -12 -12 4 -11 1 -16 -10 -16 -9 0 -16 7 -16
15 0 8 -4 15 -10 15 -5 0 -10 -7 -10 -15 0 -9 -9 -15 -21 -15 -18 0 -21 5 -17
30 3 20 0 30 -8 30 -8 0 -12 -11 -11 -27 2 -25 -2 -28 -31 -31 -22 -2 -34 2
-38 12 -3 9 -12 16 -20 16 -8 0 -11 -6 -8 -15 4 -9 0 -15 -10 -15 -9 0 -16 7
-16 15 0 8 -7 15 -15 15 -9 0 -12 -6 -9 -15 4 -10 0 -15 -15 -15 -12 0 -21 6
-21 15 0 8 -5 15 -10 15 -6 0 -9 -5 -8 -12 2 -6 -6 -14 -16 -16 -15 -3 -17 0
-12 14 6 17 6 17 -14 -1 -20 -18 -21 -18 -35 1 -13 17 -14 17 -15 2 0 -10 -7
-18 -16 -18 -11 0 -14 5 -10 17 6 15 5 15 -13 -1 -16 -14 -26 -16 -48 -9 -15
5 -30 18 -31 28 -3 15 1 17 22 11 16 -4 26 -2 26 4 0 7 -14 10 -32 8 -35 -3
-51 -33 -26 -49 9 -6 2 -9 -19 -9 -36 0 -38 2 -22 31 6 11 8 25 6 32 -2 7 -11
-5 -20 -26 -11 -25 -22 -37 -36 -37 -12 0 -21 7 -21 15 0 8 -7 15 -15 15 -9 0
-12 -6 -9 -15 4 -10 0 -15 -10 -15 -9 0 -19 7 -22 15 -4 8 -10 15 -15 15 -4 0
-6 -7 -3 -15 4 -10 0 -15 -15 -15 -12 0 -21 6 -21 15 0 8 -4 15 -10 15 -5 0
-10 -7 -10 -15 0 -8 -4 -15 -9 -15 -18 0 -22 111 -19 625 3 454 5 520 18 521
8 1 21 2 28 3 20 2 14 39 -8 46 -20 6 -25 16 -13 28 3 4 12 2 20 -4 9 -9 13
-8 13 0 0 10 -6 13 -40 15 -12 1 -15 26 -18 149 l-3 147 -309 0 c-170 0 -311
-4 -314 -8z"/>
<path d="M130 695 l0 -695 210 0 210 0 0 140 c0 133 1 140 20 140 19 0 20 -7
20 -140 l0 -140 290 0 290 0 0 134 c0 96 4 144 15 169 19 47 19 104 0 114 -25
14 -30 68 -9 89 25 25 31 152 8 161 -12 4 -14 61 -14 364 l0 359 -520 0 -520
0 0 -695z m268 -31 c23 -7 31 -24 10 -24 -20 -1 -56 -35 -60 -56 -2 -14 14
-30 59 -59 34 -22 62 -47 62 -55 1 -18 -128 -100 -146 -93 -9 4 -13 28 -13 79
0 73 -11 95 -25 52 -7 -22 -8 -22 -15 7 -14 54 -11 122 6 139 16 16 79 21 122
10z"/>
<path d="M1878 1062 l-417 -2 -5 -198 c-3 -108 -8 -230 -11 -269 l-7 -73 31 0
c21 0 31 -5 31 -15 0 -8 -7 -15 -16 -15 -13 0 -11 -4 7 -18 29 -24 20 -50 -21
-59 -30 -6 -31 -7 -29 -60 1 -30 6 -56 11 -59 4 -3 8 -70 8 -150 l0 -144 310
0 310 0 0 105 0 105 125 0 125 0 0 424 c0 395 -1 424 -17 427 -10 2 -206 3
-435 1z"/>
<path d="M4937 863 c-4 -3 -7 -199 -7 -435 l0 -428 90 0 90 0 0 330 c0 213 4
330 10 330 6 0 10 -116 10 -329 l0 -329 315 -1 315 -1 0 260 c0 143 1 263 3
268 1 4 -44 8 -100 10 l-103 3 0 164 0 165 -308 0 c-170 0 -312 -3 -315 -7z"/>
</g>
</svg>
