<?xml version="1.0" standalone="no"?>
<!DOCTYPE svg PUBLIC "-//W3C//DTD SVG 20010904//EN"
 "http://www.w3.org/TR/2001/REC-SVG-20010904/DTD/svg10.dtd">
<svg version="1.0" xmlns="http://www.w3.org/2000/svg"
 width="640.000000pt" height="360.000000pt" viewBox="0 0 640.000000 360.000000"
 preserveAspectRatio="xMidYMid meet">
<metadata>
Created by potrace 1.16, written by Peter Selinger 2001-2019
</metadata>
<g transform="translate(0.000000,360.000000) scale(0.100000,-0.100000)"
fill="#000000" stroke="none">
<path d="M1940 3540 l0 -60 280 0 280 0 0 60 0 60 -280 0 -280 0 0 -60z"/>
<path d="M2812 3328 l3 -273 495 0 c272 0 395 1 273 2 l-223 3 0 270 0 270
-275 0 -276 0 3 -272z"/>
<path d="M5392 3198 l3 -403 183 -3 182 -2 0 405 0 405 -185 0 -185 0 2 -402z"/>
<path d="M516 2122 c-3 -42 -6 -385 -6 -761 1 -629 -1 -684 -16 -696 -14 -10
-16 -24 -11 -89 3 -42 2 -74 -1 -72 -4 2 -7 -40 -7 -95 1 -83 4 -101 19 -112
16 -12 18 -29 17 -155 l-2 -142 526 0 525 0 0 144 c0 86 4 147 10 151 6 3 10
30 10 60 0 48 -2 54 -22 57 -21 3 -23 9 -26 66 -2 51 0 62 13 62 8 0 15 -4 15
-10 0 -5 5 -10 11 -10 6 0 9 26 8 70 -1 39 -6 70 -11 70 -4 0 -8 347 -8 770
l0 770 -519 0 -518 -1 -7 -77z"/>
<path d="M2640 830 l0 -830 970 0 969 0 3 823 c2 452 2 825 0 830 -2 4 -439 7
-973 7 l-969 0 0 -830z"/>
</g>
</svg>
